<?xml version="1.0" encoding="UTF-8" standalone="no"?>
<svg
   viewBox="0 0 50 50"
   width="256px"
   height="256px"
   version="1.1"
   id="svg12"
   sodipodi:docname="chat-bubble.svg"
   inkscape:version="1.2.2 (732a01da63, 2022-12-09)"
   xmlns:inkscape="http://www.inkscape.org/namespaces/inkscape"
   xmlns:sodipodi="http://sodipodi.sourceforge.net/DTD/sodipodi-0.dtd"
   xmlns="http://www.w3.org/2000/svg"
   xmlns:svg="http://www.w3.org/2000/svg">
  <defs
     id="defs16" />
  <sodipodi:namedview
     id="namedview14"
     pagecolor="#ffffff"
     bordercolor="#000000"
     borderopacity="0.25"
     inkscape:showpageshadow="2"
     inkscape:pageopacity="0.0"
     inkscape:pagecheckerboard="0"
     inkscape:deskcolor="#d1d1d1"
     showgrid="false"
     inkscape:zoom="1.6347656"
     inkscape:cx="35.173238"
     inkscape:cy="82.886499"
     inkscape:window-width="1350"
     inkscape:window-height="1040"
     inkscape:window-x="334"
     inkscape:window-y="27"
     inkscape:window-maximized="0"
     inkscape:current-layer="svg12" />
  <path
     d="m 25.000001,4.070313 c 12.632812,0 22.929687,8.851562 22.929687,19.929687 0,6.429688 -3.523437,12.027344 -8.933593,15.6875 0.0078,0.214844 -0.0078,0.5625 0.273437,1.609375 0.351563,1.292969 1.058594,3.117188 2.492188,5.171875 l 1.019531,1.460938 h -1.78125 c -6.171875,0 -9.742188,-4.023438 -10.296875,-4.667969 -1.835938,0.429687 -3.726563,0.667969 -5.703125,0.667969 C 12.367188,43.929688 2.070313,35.078125 2.070313,24 c 0,-11.078125 10.296875,-19.929687 22.929688,-19.929687 z m 0,1.859375 C 13.23047,5.929688 3.929688,14.078125 3.929688,24 c 0,9.921875 9.300782,18.070313 21.070313,18.070313 2.039062,0 3.960937,-0.195313 5.765625,-0.667969 L 31.343751,41.25 l 0.378906,0.464844 c 0,0 2.886719,3.257812 7.496094,4.042969 C 38.382813,44.25 37.765626,42.84375 37.48047,41.78125 37.078126,40.300781 37.070313,39.300781 37.070313,39.300781 v -0.511718 l 0.429688,-0.273438 C 42.781251,35.15625 46.070313,29.957031 46.070313,24 c 0,-3.454921 -1.127738,-6.69481 -3.094756,-9.450503 C 39.293675,9.3913633 32.671234,5.929688 25.000001,5.929688 Z m 10,16.070312 c 1.105469,0 2,0.894531 2,2 0,1.105469 -0.894531,2 -2,2 -1.105469,0 -2,-0.894531 -2,-2 0,-1.105469 0.894531,-2 2,-2 z m -10,0 c 1.105469,0 2,0.894531 2,2 0,1.105469 -0.894531,2 -2,2 -1.105469,0 -2,-0.894531 -2,-2 0,-1.105469 0.894531,-2 2,-2 z m -10,0 c 1.105469,0 2,0.894531 2,2 0,1.105469 -0.894531,2 -2,2 -1.105469,0 -2,-0.894531 -2,-2 0,-1.105469 0.894531,-2 2,-2 z"
     id="path10"
     sodipodi:nodetypes="ssccccscssssssccccccccssssssssssssssssss"
     style="fill:#15538f;fill-opacity:1" />
</svg>
